<mxfile host="Electron" agent="Mozilla/5.0 (Windows NT 10.0; Win64; x64) AppleWebKit/537.36 (KHTML, like Gecko) draw.io/28.1.2 Chrome/138.0.7204.243 Electron/37.4.0 Safari/537.36" version="28.1.2">
  <diagram name="Page-1" id="qU5uB-4oCCqHzpqBezBY">
    <mxGraphModel dx="1042" dy="660" grid="1" gridSize="10" guides="1" tooltips="1" connect="1" arrows="1" fold="1" page="1" pageScale="1" pageWidth="4000" pageHeight="4000" math="0" shadow="0">
      <root>
        <mxCell id="0" />
        <mxCell id="1" parent="0" />
        <mxCell id="IUabJmDCVIMplRoiQi0c-3" value="" style="edgeStyle=orthogonalEdgeStyle;rounded=0;orthogonalLoop=1;jettySize=auto;html=1;" parent="1" source="IUabJmDCVIMplRoiQi0c-1" target="IUabJmDCVIMplRoiQi0c-2" edge="1">
          <mxGeometry relative="1" as="geometry" />
        </mxCell>
        <mxCell id="IUabJmDCVIMplRoiQi0c-1" value="Start" style="strokeWidth=2;html=1;shape=mxgraph.flowchart.terminator;whiteSpace=wrap;" parent="1" vertex="1">
          <mxGeometry x="520" y="30" width="100" height="60" as="geometry" />
        </mxCell>
        <mxCell id="IUabJmDCVIMplRoiQi0c-5" value="" style="edgeStyle=orthogonalEdgeStyle;rounded=0;orthogonalLoop=1;jettySize=auto;html=1;" parent="1" source="IUabJmDCVIMplRoiQi0c-2" target="IUabJmDCVIMplRoiQi0c-4" edge="1">
          <mxGeometry relative="1" as="geometry" />
        </mxCell>
        <mxCell id="IUabJmDCVIMplRoiQi0c-2" value="(str)kata_batman" style="shape=internalStorage;whiteSpace=wrap;html=1;dx=15;dy=15;rounded=1;arcSize=8;strokeWidth=2;" parent="1" vertex="1">
          <mxGeometry x="507.5" y="130" width="125" height="70" as="geometry" />
        </mxCell>
        <mxCell id="IUabJmDCVIMplRoiQi0c-7" value="" style="edgeStyle=orthogonalEdgeStyle;rounded=0;orthogonalLoop=1;jettySize=auto;html=1;" parent="1" source="IUabJmDCVIMplRoiQi0c-4" target="IUabJmDCVIMplRoiQi0c-6" edge="1">
          <mxGeometry relative="1" as="geometry" />
        </mxCell>
        <mxCell id="IUabJmDCVIMplRoiQi0c-9" style="edgeStyle=orthogonalEdgeStyle;rounded=0;orthogonalLoop=1;jettySize=auto;html=1;exitX=1;exitY=1;exitDx=0;exitDy=0;" parent="1" source="IUabJmDCVIMplRoiQi0c-4" edge="1">
          <mxGeometry relative="1" as="geometry">
            <mxPoint x="770" y="306" as="targetPoint" />
          </mxGeometry>
        </mxCell>
        <mxCell id="IUabJmDCVIMplRoiQi0c-4" value="&quot;(Batman disuntikkan gas bius)&quot;&lt;div&gt;&lt;br&gt;&lt;div&gt;&quot;(Riddler bertanya sembari penghitung berhitung mundur dari 10 sampai 0 detik)&quot;&lt;/div&gt;&lt;/div&gt;" style="shape=parallelogram;perimeter=parallelogramPerimeter;whiteSpace=wrap;html=1;fixedSize=1;rounded=1;arcSize=8;strokeWidth=2;" parent="1" vertex="1">
          <mxGeometry x="440" y="250" width="260" height="60" as="geometry" />
        </mxCell>
        <mxCell id="IUabJmDCVIMplRoiQi0c-11" value="" style="edgeStyle=orthogonalEdgeStyle;rounded=0;orthogonalLoop=1;jettySize=auto;html=1;" parent="1" source="IUabJmDCVIMplRoiQi0c-6" target="IUabJmDCVIMplRoiQi0c-10" edge="1">
          <mxGeometry relative="1" as="geometry" />
        </mxCell>
        <mxCell id="IUabJmDCVIMplRoiQi0c-6" value="kata_batman.&lt;span style=&quot;background-color: transparent; color: light-dark(rgb(0, 0, 0), rgb(255, 255, 255));&quot;&gt;lower()&lt;/span&gt;" style="shape=parallelogram;perimeter=parallelogramPerimeter;whiteSpace=wrap;html=1;fixedSize=1;rounded=1;arcSize=8;strokeWidth=2;" parent="1" vertex="1">
          <mxGeometry x="450" y="370" width="240" height="60" as="geometry" />
        </mxCell>
        <mxCell id="IUabJmDCVIMplRoiQi0c-8" value="" style="endArrow=classic;html=1;rounded=0;entryX=0;entryY=0;entryDx=0;entryDy=0;" parent="1" target="IUabJmDCVIMplRoiQi0c-6" edge="1">
          <mxGeometry width="50" height="50" relative="1" as="geometry">
            <mxPoint x="370" y="375" as="sourcePoint" />
            <mxPoint x="430" y="340" as="targetPoint" />
          </mxGeometry>
        </mxCell>
        <mxCell id="IUabJmDCVIMplRoiQi0c-13" value="True" style="edgeStyle=orthogonalEdgeStyle;rounded=0;orthogonalLoop=1;jettySize=auto;html=1;" parent="1" source="IUabJmDCVIMplRoiQi0c-10" target="IUabJmDCVIMplRoiQi0c-12" edge="1">
          <mxGeometry relative="1" as="geometry" />
        </mxCell>
        <mxCell id="IUabJmDCVIMplRoiQi0c-10" value="&amp;nbsp;kata_batman != &quot;kelemahan&quot;:" style="rhombus;whiteSpace=wrap;html=1;rounded=1;arcSize=8;strokeWidth=2;" parent="1" vertex="1">
          <mxGeometry x="485" y="470" width="170" height="110" as="geometry" />
        </mxCell>
        <mxCell id="IUabJmDCVIMplRoiQi0c-15" style="edgeStyle=orthogonalEdgeStyle;rounded=0;orthogonalLoop=1;jettySize=auto;html=1;exitX=1;exitY=1;exitDx=0;exitDy=0;" parent="1" source="IUabJmDCVIMplRoiQi0c-12" edge="1">
          <mxGeometry relative="1" as="geometry">
            <mxPoint x="760" y="762" as="targetPoint" />
          </mxGeometry>
        </mxCell>
        <mxCell id="IUabJmDCVIMplRoiQi0c-17" value="" style="edgeStyle=orthogonalEdgeStyle;rounded=0;orthogonalLoop=1;jettySize=auto;html=1;" parent="1" source="IUabJmDCVIMplRoiQi0c-12" target="IUabJmDCVIMplRoiQi0c-14" edge="1">
          <mxGeometry relative="1" as="geometry" />
        </mxCell>
        <mxCell id="IUabJmDCVIMplRoiQi0c-12" value="&quot;R : Bohong, kamu harus memberitahu kelemahanmu, Boss.&quot;&lt;div&gt;&lt;br&gt;&lt;/div&gt;&lt;div&gt;&quot;(Riddler menyuntikkan gas bius kembali, penghitung dimulai kembali dari angka 10)&quot;&lt;/div&gt;" style="shape=parallelogram;perimeter=parallelogramPerimeter;whiteSpace=wrap;html=1;fixedSize=1;rounded=1;arcSize=8;strokeWidth=2;" parent="1" vertex="1">
          <mxGeometry x="440" y="660" width="260" height="110" as="geometry" />
        </mxCell>
        <mxCell id="IUabJmDCVIMplRoiQi0c-18" style="edgeStyle=orthogonalEdgeStyle;rounded=0;orthogonalLoop=1;jettySize=auto;html=1;exitX=0;exitY=0.5;exitDx=0;exitDy=0;entryX=0;entryY=0.5;entryDx=0;entryDy=0;" parent="1" source="IUabJmDCVIMplRoiQi0c-14" target="IUabJmDCVIMplRoiQi0c-10" edge="1">
          <mxGeometry relative="1" as="geometry">
            <Array as="points">
              <mxPoint x="370" y="840" />
              <mxPoint x="370" y="525" />
            </Array>
          </mxGeometry>
        </mxCell>
        <mxCell id="IUabJmDCVIMplRoiQi0c-14" value="kata_batman.&lt;span style=&quot;background-color: transparent; color: light-dark(rgb(0, 0, 0), rgb(255, 255, 255));&quot;&gt;lower()&lt;/span&gt;" style="shape=parallelogram;perimeter=parallelogramPerimeter;whiteSpace=wrap;html=1;fixedSize=1;rounded=1;arcSize=8;strokeWidth=2;" parent="1" vertex="1">
          <mxGeometry x="450" y="810" width="240" height="60" as="geometry" />
        </mxCell>
        <mxCell id="IUabJmDCVIMplRoiQi0c-16" value="" style="endArrow=classic;html=1;rounded=0;entryX=0;entryY=0;entryDx=0;entryDy=0;" parent="1" edge="1">
          <mxGeometry width="50" height="50" relative="1" as="geometry">
            <mxPoint x="380" y="810" as="sourcePoint" />
            <mxPoint x="478" y="810" as="targetPoint" />
          </mxGeometry>
        </mxCell>
        <mxCell id="IUabJmDCVIMplRoiQi0c-23" style="edgeStyle=orthogonalEdgeStyle;rounded=0;orthogonalLoop=1;jettySize=auto;html=1;exitX=1;exitY=1;exitDx=0;exitDy=0;" parent="1" source="IUabJmDCVIMplRoiQi0c-20" edge="1">
          <mxGeometry relative="1" as="geometry">
            <mxPoint x="1160" y="748" as="targetPoint" />
          </mxGeometry>
        </mxCell>
        <mxCell id="IUabJmDCVIMplRoiQi0c-20" value="&quot;(Penghitung mundur menjadi 0 dan berhenti total)&quot;&lt;div&gt;&lt;br&gt;&lt;/div&gt;&lt;div&gt;&quot;R : Perulangannya berhenti(?) Kau menemukan syarat True yang membuat perulangan itu mencapai titik False.&quot;&lt;/div&gt;&lt;div&gt;&lt;br&gt;&lt;/div&gt;&lt;div&gt;&quot;(Batman pun terbebas dari ikatan)&quot;&lt;/div&gt;" style="shape=parallelogram;perimeter=parallelogramPerimeter;whiteSpace=wrap;html=1;fixedSize=1;rounded=1;arcSize=8;strokeWidth=2;" parent="1" vertex="1">
          <mxGeometry x="840" y="610" width="240" height="150" as="geometry" />
        </mxCell>
        <mxCell id="IUabJmDCVIMplRoiQi0c-21" value="False" style="edgeStyle=orthogonalEdgeStyle;rounded=0;orthogonalLoop=1;jettySize=auto;html=1;exitX=1;exitY=0.5;exitDx=0;exitDy=0;entryX=0.615;entryY=0.008;entryDx=0;entryDy=0;entryPerimeter=0;" parent="1" source="IUabJmDCVIMplRoiQi0c-10" target="IUabJmDCVIMplRoiQi0c-20" edge="1">
          <mxGeometry relative="1" as="geometry" />
        </mxCell>
        <mxCell id="IUabJmDCVIMplRoiQi0c-22" value="End" style="strokeWidth=2;html=1;shape=mxgraph.flowchart.terminator;whiteSpace=wrap;" parent="1" vertex="1">
          <mxGeometry x="740" y="1040" width="100" height="60" as="geometry" />
        </mxCell>
        <mxCell id="IUabJmDCVIMplRoiQi0c-24" style="edgeStyle=orthogonalEdgeStyle;rounded=0;orthogonalLoop=1;jettySize=auto;html=1;exitX=0.5;exitY=1;exitDx=0;exitDy=0;entryX=0.5;entryY=0;entryDx=0;entryDy=0;entryPerimeter=0;" parent="1" source="IUabJmDCVIMplRoiQi0c-20" target="IUabJmDCVIMplRoiQi0c-22" edge="1">
          <mxGeometry relative="1" as="geometry" />
        </mxCell>
        <mxCell id="IUabJmDCVIMplRoiQi0c-25" style="edgeStyle=orthogonalEdgeStyle;rounded=0;orthogonalLoop=1;jettySize=auto;html=1;exitX=0.5;exitY=1;exitDx=0;exitDy=0;entryX=0.5;entryY=0;entryDx=0;entryDy=0;entryPerimeter=0;" parent="1" source="IUabJmDCVIMplRoiQi0c-14" target="IUabJmDCVIMplRoiQi0c-22" edge="1">
          <mxGeometry relative="1" as="geometry">
            <Array as="points">
              <mxPoint x="570" y="900" />
              <mxPoint x="790" y="900" />
            </Array>
          </mxGeometry>
        </mxCell>
      </root>
    </mxGraphModel>
  </diagram>
</mxfile>
